<svg width="13" height="21" viewBox="0 0 13 21" fill="none" xmlns="http://www.w3.org/2000/svg">
<path d="M2 10.5L1.11612 9.61612C0.627961 10.1043 0.627961 10.8957 1.11612 11.3839L2 10.5ZM11.8839 2.38388C12.372 1.89573 12.372 1.10427 11.8839 0.616117C11.3957 0.127961 10.6043 0.127961 10.1161 0.616117L11.8839 2.38388ZM10.1161 20.3839C10.6043 20.872 11.3957 20.872 11.8839 20.3839C12.372 19.8957 12.372 19.1043 11.8839 18.6161L10.1161 20.3839ZM2.88388 11.3839L11.8839 2.38388L10.1161 0.616117L1.11612 9.61612L2.88388 11.3839ZM1.11612 11.3839L10.1161 20.3839L11.8839 18.6161L2.88388 9.61612L1.11612 11.3839Z" fill="#FAFAFA"/>
</svg>
