<svg width="25" height="26" viewBox="0 0 25 26" fill="none" xmlns="http://www.w3.org/2000/svg">
<path d="M22.7402 24.4375C22.7402 24.9898 23.1879 25.4375 23.7402 25.4375C24.2925 25.4375 24.7402 24.9898 24.7402 24.4375H22.7402ZM0.962402 24.4375C0.962402 24.9898 1.41012 25.4375 1.9624 25.4375C2.51469 25.4375 2.9624 24.9898 2.9624 24.4375H0.962402ZM18.0735 7.32638C18.0735 10.2105 15.7354 12.5486 12.8513 12.5486V14.5486C16.84 14.5486 20.0735 11.3151 20.0735 7.32638H18.0735ZM12.8513 12.5486C9.96714 12.5486 7.62907 10.2105 7.62907 7.32638H5.62907C5.62907 11.3151 8.86257 14.5486 12.8513 14.5486V12.5486ZM7.62907 7.32638C7.62907 4.44222 9.96714 2.10416 12.8513 2.10416V0.104156C8.86257 0.104156 5.62907 3.33766 5.62907 7.32638H7.62907ZM12.8513 2.10416C15.7354 2.10416 18.0735 4.44222 18.0735 7.32638H20.0735C20.0735 3.33766 16.84 0.104156 12.8513 0.104156V2.10416ZM2.9624 24.4375C2.9624 18.976 7.38981 14.5486 12.8513 14.5486V12.5486C6.28524 12.5486 0.962402 17.8714 0.962402 24.4375H2.9624ZM12.8513 14.5486C18.3128 14.5486 22.7402 18.976 22.7402 24.4375H24.7402C24.7402 17.8714 19.4173 12.5486 12.8513 12.5486V14.5486Z" fill="#FAFAFA" fill-opacity="0.4"/>
</svg>
