<svg width="19" height="27" viewBox="0 0 19 27" fill="none" xmlns="http://www.w3.org/2000/svg">
<path d="M17.3642 25.1667L16.8603 26.0305C17.1696 26.2109 17.5517 26.2122 17.8622 26.0338C18.1727 25.8555 18.3642 25.5247 18.3642 25.1667H17.3642ZM9.58637 20.6296L10.0902 19.7659L9.58637 19.4719L9.0825 19.7659L9.58637 20.6296ZM1.80859 25.1667H0.808594C0.808594 25.5247 1.00004 25.8555 1.31053 26.0338C1.62103 26.2122 2.00318 26.2109 2.31246 26.0305L1.80859 25.1667ZM4.40119 2.83334H14.7716V0.833344H4.40119V2.83334ZM14.7716 2.83334C15.2447 2.83334 15.5331 2.94876 15.7157 3.07049C15.9045 3.19639 16.0429 3.37141 16.1456 3.57685C16.2503 3.78621 16.3077 4.00768 16.3372 4.18524C16.3516 4.27165 16.3585 4.34148 16.3616 4.38578C16.3632 4.40777 16.3638 4.42294 16.3641 4.43013C16.3642 4.43372 16.3642 4.43526 16.3642 4.43463C16.3642 4.4343 16.3642 4.43343 16.3642 4.43199C16.3642 4.43127 16.3642 4.43041 16.3642 4.4294C16.3642 4.4289 16.3642 4.42836 16.3642 4.42778C16.3642 4.42749 16.3642 4.42703 16.3642 4.42688C16.3642 4.42642 16.3642 4.42594 17.3642 4.42594C18.3642 4.42594 18.3641 4.42544 18.3641 4.42493C18.3641 4.42474 18.3641 4.42422 18.3641 4.42386C18.3641 4.42312 18.3641 4.42235 18.3641 4.42153C18.3641 4.41989 18.3641 4.41809 18.3641 4.41612C18.3641 4.41219 18.364 4.4076 18.3639 4.40237C18.3638 4.39192 18.3635 4.37891 18.363 4.36351C18.3619 4.33272 18.36 4.2922 18.3565 4.24329C18.3496 4.14581 18.3361 4.01309 18.31 3.85644C18.2586 3.5479 18.1539 3.12121 17.9345 2.68243C17.7132 2.23972 17.3654 1.7666 16.8251 1.40639C16.2785 1.042 15.5947 0.833344 14.7716 0.833344V2.83334ZM16.3642 4.42594V25.1667H18.3642V4.42594H16.3642ZM17.868 24.3029L10.0902 19.7659L9.0825 21.4934L16.8603 26.0305L17.868 24.3029ZM9.0825 19.7659L1.30472 24.3029L2.31246 26.0305L10.0902 21.4934L9.0825 19.7659ZM2.80859 25.1667V4.42594H0.808594V25.1667H2.80859ZM2.80859 4.42594C2.80859 3.95277 2.92401 3.66438 3.04574 3.48179C3.17164 3.29295 3.34666 3.15457 3.5521 3.05184C3.76146 2.94717 3.98293 2.88984 4.16049 2.86025C4.2469 2.84584 4.31673 2.83903 4.36103 2.83587C4.38302 2.8343 4.39819 2.83366 4.40539 2.83342C4.40897 2.8333 4.41051 2.83328 4.40988 2.83329C4.40956 2.8333 4.40868 2.83331 4.40724 2.83332C4.40652 2.83333 4.40566 2.83333 4.40465 2.83334C4.40415 2.83334 4.40361 2.83334 4.40303 2.83334C4.40274 2.83334 4.40228 2.83334 4.40214 2.83334C4.40167 2.83334 4.40119 2.83334 4.40119 1.83334C4.40119 0.833344 4.40069 0.833344 4.40018 0.833344C4.4 0.833344 4.39947 0.833345 4.39911 0.833346C4.39837 0.833347 4.3976 0.833349 4.39678 0.833353C4.39514 0.833359 4.39334 0.833369 4.39137 0.833385C4.38744 0.833416 4.38285 0.833468 4.37762 0.833553C4.36717 0.833721 4.35416 0.834018 4.33876 0.834532C4.30797 0.835558 4.26745 0.837455 4.21854 0.840948C4.12106 0.847911 3.98834 0.861352 3.83169 0.887459C3.52315 0.938883 3.09647 1.0436 2.65768 1.26299C2.21497 1.48434 1.74185 1.83207 1.38164 2.37239C1.01725 2.91897 0.808594 3.6028 0.808594 4.42594H2.80859Z" fill="#FAFAFA" fill-opacity="0.4"/>
</svg>
