<svg width="38" height="38" viewBox="0 0 38 38" fill="none" xmlns="http://www.w3.org/2000/svg">
<rect width="38" height="38" rx="19" fill="#96ADFB"/>
<path d="M12.7589 27.6301L13.1192 28.6164C13.1631 28.6004 13.2058 28.5814 13.2472 28.5597L12.7589 27.6301ZM11.9957 26.8797L12.9779 27.2508C12.9821 27.2396 12.9862 27.2282 12.9901 27.2168L11.9957 26.8797ZM11.9957 11.1203L12.9901 10.7832C12.9862 10.7718 12.9821 10.7605 12.9779 10.7492L11.9957 11.1203ZM12.7589 10.3699L13.2472 9.44033C13.2058 9.4186 13.1631 9.39965 13.1192 9.38362L12.7589 10.3699ZM27.1252 20.0833L27.6135 21.0129L27.6135 21.0129L27.1252 20.0833ZM27.1252 17.9167L26.6369 18.8462H26.6369L27.1252 17.9167ZM27.7943 18.2682L27.306 19.1977C27.3225 19.2064 27.3393 19.2147 27.3562 19.2224L27.7943 18.2682ZM27.7943 19.7318L27.3562 18.7776C27.3393 18.7854 27.3225 18.7936 27.306 18.8023L27.7943 19.7318ZM27.5713 18.151L28.0596 17.2215L28.0596 17.2215L27.5713 18.151ZM27.5713 19.849L28.0596 20.7785L28.0596 20.7785L27.5713 19.849ZM27.3482 19.9662L26.8599 19.0366L26.8599 19.0366L27.3482 19.9662ZM20.0835 20.05C20.6634 20.05 21.1335 19.5799 21.1335 19C21.1335 18.4201 20.6634 17.95 20.0835 17.95V20.05ZM12.3987 26.6439C12.4782 26.6148 12.5637 26.609 12.6459 26.6266L12.2053 28.6799C12.5096 28.7452 12.8265 28.7233 13.1192 28.6164L12.3987 26.6439ZM12.6459 26.6266C12.7281 26.6443 12.8057 26.6852 12.8685 26.747L11.3962 28.2444C11.6199 28.4643 11.901 28.6146 12.2053 28.6799L12.6459 26.6266ZM12.8685 26.747C12.9316 26.809 12.9771 26.8895 12.9972 26.9799L10.9471 27.4349C11.0156 27.7437 11.1724 28.0244 11.3962 28.2444L12.8685 26.747ZM12.9972 26.9799C13.0173 27.0704 13.0104 27.1647 12.9779 27.2508L11.0134 26.5086C10.9017 26.8042 10.8785 27.126 10.9471 27.4349L12.9972 26.9799ZM12.9901 27.2168L15.6614 19.3371L13.6726 18.6629L11.0012 26.5426L12.9901 27.2168ZM15.6614 18.6629L12.9901 10.7832L11.0012 11.4575L13.6726 19.3371L15.6614 18.6629ZM12.9779 10.7492C13.0104 10.8353 13.0173 10.9296 12.9972 11.0201L10.9471 10.5651C10.8785 10.874 10.9017 11.1958 11.0134 11.4914L12.9779 10.7492ZM12.9972 11.0201C12.9771 11.1105 12.9316 11.191 12.8685 11.253L11.3962 9.75559C11.1724 9.97564 11.0156 10.2563 10.9471 10.5651L12.9972 11.0201ZM12.8685 11.253C12.8057 11.3148 12.7281 11.3558 12.6459 11.3734L12.2053 9.32013C11.901 9.38543 11.6199 9.53571 11.3962 9.75559L12.8685 11.253ZM12.6459 11.3734C12.5637 11.391 12.4782 11.3852 12.3987 11.3561L13.1192 9.38362C12.8265 9.27672 12.5096 9.25485 12.2053 9.32013L12.6459 11.3734ZM27.6135 16.9871L13.2472 9.44033L12.2706 11.2994L26.6369 18.8462L27.6135 16.9871ZM27.7943 18.2682C27.3562 19.2224 27.3557 19.2222 27.3552 19.222C27.3551 19.2219 27.3546 19.2217 27.3542 19.2215C27.3536 19.2212 27.3529 19.2209 27.3523 19.2206C27.351 19.22 27.3497 19.2194 27.3484 19.2188C27.3459 19.2176 27.3434 19.2164 27.341 19.2153C27.3362 19.213 27.3317 19.2108 27.3274 19.2086C27.3188 19.2043 27.3112 19.2003 27.3043 19.1965C27.2908 19.189 27.2797 19.1821 27.2704 19.1758C27.2528 19.1639 27.2361 19.1503 27.2204 19.1327C27.2036 19.114 27.1861 19.0889 27.1733 19.058C27.1671 19.0429 27.1631 19.0291 27.1608 19.0175C27.1585 19.006 27.1585 18.9997 27.1585 19H29.2585C29.2585 18.4328 29.0325 18.0075 28.7825 17.7292C28.6632 17.5964 28.543 17.5014 28.4477 17.4369C28.3996 17.4043 28.3561 17.3784 28.3199 17.3584C28.3017 17.3483 28.2852 17.3397 28.2706 17.3323C28.2633 17.3286 28.2564 17.3253 28.25 17.3222C28.2468 17.3207 28.2438 17.3192 28.2408 17.3179C28.2394 17.3172 28.2379 17.3165 28.2365 17.3159C28.2358 17.3155 28.2351 17.3152 28.2345 17.3149C28.2341 17.3147 28.2336 17.3145 28.2334 17.3144C28.2329 17.3142 28.2324 17.314 27.7943 18.2682ZM26.6369 19.1538L12.2706 26.7006L13.2472 28.5597L27.6135 21.0129L26.6369 19.1538ZM27.1585 19C27.1585 19.0004 27.1585 18.994 27.1608 18.9825C27.1631 18.9709 27.1671 18.9571 27.1733 18.942C27.1861 18.9112 27.2036 18.886 27.2204 18.8673C27.2361 18.8497 27.2528 18.8361 27.2704 18.8242C27.2797 18.8179 27.2908 18.811 27.3043 18.8035C27.3112 18.7998 27.3188 18.7957 27.3274 18.7914C27.3317 18.7893 27.3362 18.787 27.341 18.7847C27.3434 18.7836 27.3459 18.7824 27.3484 18.7812C27.3497 18.7806 27.351 18.78 27.3523 18.7794C27.3529 18.7791 27.3536 18.7788 27.3542 18.7785C27.3546 18.7784 27.3551 18.7781 27.3552 18.778C27.3557 18.7778 27.3562 18.7776 27.7943 19.7318C28.2324 20.6861 28.2329 20.6858 28.2334 20.6856C28.2336 20.6855 28.2341 20.6853 28.2345 20.6851C28.2351 20.6848 28.2358 20.6845 28.2365 20.6842C28.2379 20.6835 28.2394 20.6828 28.2408 20.6821C28.2438 20.6808 28.2468 20.6793 28.25 20.6778C28.2564 20.6747 28.2633 20.6714 28.2706 20.6677C28.2852 20.6603 28.3017 20.6517 28.3199 20.6416C28.3561 20.6216 28.3996 20.5957 28.4477 20.5631C28.543 20.4986 28.6632 20.4036 28.7825 20.2708C29.0325 19.9925 29.2585 19.5672 29.2585 19H27.1585ZM28.2826 17.3386L28.0596 17.2215L27.083 19.0806L27.306 19.1977L28.2826 17.3386ZM27.306 18.8023L27.083 18.9194L28.0596 20.7785L28.2826 20.6614L27.306 18.8023ZM28.0596 17.2215L27.8365 17.1043L26.8599 18.9634L27.083 19.0806L28.0596 17.2215ZM27.8365 17.1043L27.6135 16.9871L26.6369 18.8462L26.8599 18.9634L27.8365 17.1043ZM27.083 18.9194L26.8599 19.0366L27.8365 20.8957L28.0596 20.7785L27.083 18.9194ZM26.8599 19.0366L26.6369 19.1538L27.6135 21.0129L27.8365 20.8957L26.8599 19.0366ZM14.667 20.05H20.0835V17.95H14.667V20.05Z" fill="#232323"/>
</svg>
