<svg width="26" height="27" viewBox="0 0 26 27" fill="none" xmlns="http://www.w3.org/2000/svg">
<path d="M21.941 21.2778L21.6139 22.2228C22.0608 22.3775 22.5551 22.1979 22.7985 21.7923L21.941 21.2778ZM18.5706 20.1111L18.8977 19.1661L18.3642 18.9814L17.9304 19.3429L18.5706 20.1111ZM15.978 21.6667L15.5841 20.7475L15.0922 20.9583L14.9947 21.4846L15.978 21.6667ZM15.3299 25.1667V26.1667C15.8119 26.1667 16.2254 25.8228 16.3131 25.3488L15.3299 25.1667ZM10.7928 25.1667L9.80954 25.3488C9.89732 25.8228 10.3108 26.1667 10.7928 26.1667V25.1667ZM10.1447 21.6667L11.128 21.4846L11.0305 20.9583L10.5386 20.7475L10.1447 21.6667ZM7.55208 20.1111L8.19227 19.3429L7.76433 18.9863L7.23586 19.1624L7.55208 20.1111ZM4.05208 21.2778L3.19459 21.7923C3.43573 22.1942 3.92366 22.3747 4.36831 22.2265L4.05208 21.2778ZM1.71875 17.3889L1.04979 16.6456C0.694073 16.9657 0.615039 17.493 0.861257 17.9034L1.71875 17.3889ZM4.31134 15.0556L4.98031 15.7989L5.36838 15.4496L5.30362 14.9315L4.31134 15.0556ZM4.31134 12.0741L5.30129 12.2155L5.37428 11.7046L5.00009 11.3491L4.31134 12.0741ZM1.71875 9.61112L0.861257 9.09663C0.620243 9.49831 0.690377 10.0135 1.03 10.3361L1.71875 9.61112ZM4.05208 5.72223L4.37919 4.77725C3.93221 4.62252 3.43795 4.80214 3.19459 5.20774L4.05208 5.72223ZM7.42245 6.8889L7.09534 7.83389L7.62889 8.01858L8.06264 7.65712L7.42245 6.8889ZM10.015 5.33334L10.409 6.25249L10.9009 6.04167L10.9983 5.51543L10.015 5.33334ZM10.6632 1.83334V0.833344C10.1811 0.833344 9.76769 1.17726 9.67991 1.65125L10.6632 1.83334ZM15.2002 1.83334L16.1835 1.65125C16.0957 1.17726 15.6823 0.833344 15.2002 0.833344V1.83334ZM15.8484 5.33334L14.8651 5.51543L14.9625 6.04167L15.4545 6.25249L15.8484 5.33334ZM18.441 6.8889L17.8008 7.65712L18.2287 8.01374L18.7572 7.83758L18.441 6.8889ZM21.941 5.72223L22.7985 5.20774C22.5573 4.80583 22.0694 4.62533 21.6247 4.77355L21.941 5.72223ZM24.2743 9.61112L24.9433 10.3544C25.299 10.0343 25.378 9.50699 25.1318 9.09662L24.2743 9.61112ZM21.6817 11.9445L21.0127 11.2012L20.6247 11.5504L20.6894 12.0685L21.6817 11.9445ZM21.6817 14.9259L20.6918 14.7845L20.6188 15.2955L20.993 15.6509L21.6817 14.9259ZM24.2743 17.3889L25.1318 17.9034C25.3728 17.5017 25.3027 16.9865 24.9631 16.6639L24.2743 17.3889ZM22.2681 20.3328L18.8977 19.1661L18.2435 21.0561L21.6139 22.2228L22.2681 20.3328ZM17.9304 19.3429C17.2416 19.9169 16.4219 20.3885 15.5841 20.7475L16.3719 22.5858C17.349 22.1671 18.3441 21.6016 19.2108 20.8793L17.9304 19.3429ZM14.9947 21.4846L14.3466 24.9846L16.3131 25.3488L16.9613 21.8488L14.9947 21.4846ZM15.3299 24.1667H10.7928V26.1667H15.3299V24.1667ZM11.7761 24.9846L11.128 21.4846L9.16139 21.8488L9.80954 25.3488L11.7761 24.9846ZM10.5386 20.7475C9.70081 20.3885 8.88109 19.9169 8.19227 19.3429L6.9119 20.8793C7.77863 21.6016 8.77373 22.1671 9.75076 22.5858L10.5386 20.7475ZM7.23586 19.1624L3.73586 20.3291L4.36831 22.2265L7.86831 21.0598L7.23586 19.1624ZM4.90958 20.7633L2.57624 16.8744L0.861257 17.9034L3.19459 21.7923L4.90958 20.7633ZM2.38771 18.1322L4.98031 15.7989L3.64238 14.3123L1.04979 16.6456L2.38771 18.1322ZM5.30362 14.9315C5.1835 13.9706 5.18585 13.0236 5.30129 12.2155L3.32139 11.9327C3.17758 12.9394 3.17992 14.0665 3.31907 15.1796L5.30362 14.9315ZM5.00009 11.3491L2.4075 8.88612L1.03 10.3361L3.62259 12.7991L5.00009 11.3491ZM2.57624 10.1256L4.90958 6.23673L3.19459 5.20774L0.861257 9.09663L2.57624 10.1256ZM3.72497 6.66722L7.09534 7.83389L7.74956 5.94391L4.37919 4.77725L3.72497 6.66722ZM8.06264 7.65712C8.75146 7.0831 9.57118 6.61154 10.409 6.25249L9.62113 4.4142C8.6441 4.83292 7.649 5.3984 6.78227 6.12068L8.06264 7.65712ZM10.9983 5.51543L11.6465 2.01543L9.67991 1.65125L9.03176 5.15125L10.9983 5.51543ZM10.6632 2.83334H15.2002V0.833344H10.6632V2.83334ZM14.2169 2.01543L14.8651 5.51543L16.8317 5.15125L16.1835 1.65125L14.2169 2.01543ZM15.4545 6.25249C16.2922 6.61154 17.112 7.0831 17.8008 7.65712L19.0812 6.12068C18.2144 5.3984 17.2193 4.83292 16.2423 4.4142L15.4545 6.25249ZM18.7572 7.83758L22.2572 6.67092L21.6247 4.77355L18.1247 5.94022L18.7572 7.83758ZM21.0835 6.23673L23.4168 10.1256L25.1318 9.09662L22.7985 5.20774L21.0835 6.23673ZM23.6053 8.86783L21.0127 11.2012L22.3507 12.6877L24.9433 10.3544L23.6053 8.86783ZM20.6894 12.0685C20.8096 13.0294 20.8072 13.9764 20.6918 14.7845L22.6717 15.0674C22.8155 14.0607 22.8131 12.9336 22.674 11.8204L20.6894 12.0685ZM20.993 15.6509L23.5856 18.1139L24.9631 16.6639L22.3705 14.2009L20.993 15.6509ZM23.4168 16.8744L21.0835 20.7633L22.7985 21.7923L25.1318 17.9034L23.4168 16.8744ZM15.7558 13.5C15.7558 15.0955 14.4624 16.3889 12.8669 16.3889V18.3889C15.567 18.3889 17.7558 16.2001 17.7558 13.5H15.7558ZM12.8669 16.3889C11.2714 16.3889 9.97801 15.0955 9.97801 13.5H7.97801C7.97801 16.2001 10.1668 18.3889 12.8669 18.3889V16.3889ZM9.97801 13.5C9.97801 11.9045 11.2714 10.6111 12.8669 10.6111V8.61112C10.1668 8.61112 7.97801 10.8 7.97801 13.5H9.97801ZM12.8669 10.6111C14.4624 10.6111 15.7558 11.9045 15.7558 13.5H17.7558C17.7558 10.8 15.567 8.61112 12.8669 8.61112V10.6111Z" fill="#FAFAFA" fill-opacity="0.4"/>
</svg>
